<svg xmlns="http://www.w3.org/2000/svg" id="Layer_1" data-name="Layer 1" viewBox="0 0 96 96"><defs><style>.cls-1{fill:#e83c3d}</style></defs><title>Favicon</title><path d="M16.82,63.59a7.92,7.92,0,0,1-7.91-7.92V31.92a7.92,7.92,0,1,1,15.83,0V55.67A7.92,7.92,0,0,1,16.82,63.59Zm1.55-43.71a8.4,8.4,0,0,0,1.48-.44,7.87,7.87,0,0,0,1.37-.74,7.52,7.52,0,0,0,1.21-1,8.14,8.14,0,0,0,1-1.2,8.55,8.55,0,0,0,.73-1.37,7.63,7.63,0,0,0,.44-1.48,7.35,7.35,0,0,0,.16-1.55,7.26,7.26,0,0,0-.16-1.54,7.73,7.73,0,0,0-.44-1.49,8.45,8.45,0,0,0-.73-1.36,8.23,8.23,0,0,0-1-1.21,8.11,8.11,0,0,0-1.21-1,7.82,7.82,0,0,0-1.37-.73,7.66,7.66,0,0,0-1.48-.45,8,8,0,0,0-3.09,0,7.66,7.66,0,0,0-1.48.45,7.82,7.82,0,0,0-1.37.73,7.63,7.63,0,0,0-1.21,1,8.23,8.23,0,0,0-1,1.21,8.45,8.45,0,0,0-.73,1.36,7.08,7.08,0,0,0-.44,1.49,7.26,7.26,0,0,0-.16,1.54,7.35,7.35,0,0,0,.16,1.55,7,7,0,0,0,.44,1.48,8.55,8.55,0,0,0,.73,1.37,8.14,8.14,0,0,0,1,1.2,7.11,7.11,0,0,0,1.21,1,7.87,7.87,0,0,0,1.37.74,8.4,8.4,0,0,0,1.48.44,7.54,7.54,0,0,0,3.09,0ZM87.09,56.16V36.82a25.73,25.73,0,0,0-51.46,0V56.16a7.92,7.92,0,1,0,15.83,0V36.82a9.9,9.9,0,0,1,19.8,0V56.16a7.92,7.92,0,1,0,15.83,0ZM96,83.88A7.92,7.92,0,0,0,88.08,76H7.92a7.92,7.92,0,1,0,0,15.83H88.08A7.92,7.92,0,0,0,96,83.88Z" class="cls-1"/></svg>