<svg id="Layer_1" data-name="Layer 1" xmlns="http://www.w3.org/2000/svg" viewBox="0 0 128 33"><defs><style>.cls-1{fill:#e83c3d;}</style></defs><title>Logoo</title><path d="M11,21.13H7.85A7.85,7.85,0,0,1,2.3,7.73a2.41,2.41,0,0,1,3.41,3.41A3,3,0,0,0,7.85,16.3h.77V2.41a2.42,2.42,0,0,1,4.83,0v16.3A2.42,2.42,0,0,1,11,21.13ZM21.6,18.71V11.47a2.42,2.42,0,1,0-4.83,0v7.24a2.42,2.42,0,1,0,4.83,0Zm-2-10.91a2.44,2.44,0,0,0,.46-.14,3.23,3.23,0,0,0,.41-.22,2.2,2.2,0,0,0,.37-.3,2.69,2.69,0,0,0,.3-.37,2.1,2.1,0,0,0,.22-.42,2.35,2.35,0,0,0,.14-.45,2.42,2.42,0,0,0,.05-.47,2.45,2.45,0,0,0-.71-1.71,2.2,2.2,0,0,0-.37-.3,2.32,2.32,0,0,0-.41-.22,2.44,2.44,0,0,0-.46-.14,2.48,2.48,0,0,0-.94,0,2.35,2.35,0,0,0-.45.14,2.1,2.1,0,0,0-.42.22,3.47,3.47,0,0,0-.37.3,2.63,2.63,0,0,0-.29.37,2.16,2.16,0,0,0-.36.87,1.83,1.83,0,0,0-.05.47,1.83,1.83,0,0,0,.05.47,2.32,2.32,0,0,0,.13.45,2.13,2.13,0,0,0,.23.42,2.06,2.06,0,0,0,.29.37,2.5,2.5,0,0,0,2.18.66Zm29.54-.24a7.86,7.86,0,0,0-11-.1,7.84,7.84,0,0,0-13.28,5.65V19a2.42,2.42,0,1,0,4.83,0v-5.9a3,3,0,0,1,6,0V19a2.42,2.42,0,1,0,4.83,0v-5.9a3,3,0,1,1,6,0V19a2.42,2.42,0,0,0,4.84,0v-5.9A7.83,7.83,0,0,0,49.19,7.56ZM59.64,18.71V11.47a2.42,2.42,0,1,0-4.83,0v7.24a2.42,2.42,0,1,0,4.83,0Zm-2-10.91a2.15,2.15,0,0,0,.45-.14,2.78,2.78,0,0,0,.42-.22,2.69,2.69,0,0,0,.37-.3,2.69,2.69,0,0,0,.3-.37,2.1,2.1,0,0,0,.22-.42,2.35,2.35,0,0,0,.14-.45,2.23,2.23,0,0,0,0-.94,2.15,2.15,0,0,0-.14-.45,2.1,2.1,0,0,0-.22-.42,2.69,2.69,0,0,0-.3-.37,2.69,2.69,0,0,0-.37-.3,2.1,2.1,0,0,0-.42-.22,2.15,2.15,0,0,0-.45-.14,2.48,2.48,0,0,0-.94,0,2.35,2.35,0,0,0-.45.14,2.1,2.1,0,0,0-.42.22,2.69,2.69,0,0,0-.37.3,2.69,2.69,0,0,0-.3.37,2.78,2.78,0,0,0-.22.42,2.15,2.15,0,0,0-.14.45,2.5,2.5,0,0,0,.66,2.18,2.69,2.69,0,0,0,.37.3,2.78,2.78,0,0,0,.42.22,2.35,2.35,0,0,0,.45.14,2.78,2.78,0,0,0,.94,0Zm19.76,6.08V24.75a7.25,7.25,0,1,1-14.49,0,2.42,2.42,0,1,1,4.83,0,2.42,2.42,0,1,0,4.83,0V20.7a7.24,7.24,0,1,1,4.83-6.82Zm-4.83,0A2.42,2.42,0,1,0,70.2,16.3,2.42,2.42,0,0,0,72.62,13.88Zm22.34,0a7.25,7.25,0,1,0-7.25,7.25A7.25,7.25,0,0,0,95,13.88Zm-4.83,0a2.42,2.42,0,1,1-2.42-2.41A2.43,2.43,0,0,1,90.13,13.88Z"/><path class="cls-1" d="M103.41,20.67A2.42,2.42,0,0,1,101,18.26V11a2.42,2.42,0,0,1,4.83,0v7.25A2.41,2.41,0,0,1,103.41,20.67Zm.47-13.33a2.32,2.32,0,0,0,.45-.13,2.13,2.13,0,0,0,.42-.23,1.74,1.74,0,0,0,.37-.3,2.6,2.6,0,0,0,.3-.36,2.78,2.78,0,0,0,.22-.42,2.35,2.35,0,0,0,.14-.45,2.56,2.56,0,0,0,0-.47,2.42,2.42,0,0,0,0-.47,2.44,2.44,0,0,0-.14-.46,3.23,3.23,0,0,0-.22-.41,2.2,2.2,0,0,0-.3-.37,2.69,2.69,0,0,0-.37-.3,2.1,2.1,0,0,0-.42-.22,1.81,1.81,0,0,0-.45-.14,2.48,2.48,0,0,0-.94,0,1.69,1.69,0,0,0-.45.14,2.1,2.1,0,0,0-.42.22,2.69,2.69,0,0,0-.37.3,2.2,2.2,0,0,0-.3.37,2.32,2.32,0,0,0-.22.41,2.44,2.44,0,0,0-.14.46A2.42,2.42,0,0,0,101,5a2.59,2.59,0,0,0,.05.47,2.35,2.35,0,0,0,.14.45,2.1,2.1,0,0,0,.22.42,2.6,2.6,0,0,0,.3.36,1.74,1.74,0,0,0,.37.3,2.16,2.16,0,0,0,.87.36,2.23,2.23,0,0,0,.94,0Zm21,11.07v-5.9a7.85,7.85,0,1,0-15.69,0v5.9a2.42,2.42,0,1,0,4.83,0v-5.9a3,3,0,0,1,3-3,3,3,0,0,1,2.14.89,3,3,0,0,1,.88,2.13v5.9a2.42,2.42,0,1,0,4.83,0Zm2.72,8.45a2.41,2.41,0,0,0-2.41-2.41H100.69a2.42,2.42,0,0,0,0,4.83h24.46A2.41,2.41,0,0,0,127.56,26.86Z"/></svg>
