<svg id="LOGO" xmlns="http://www.w3.org/2000/svg" viewBox="0 0 260 36"><defs><style>.cls-1{isolation:isolate;}.cls-2{fill:#151313;}</style></defs><title>Logo</title><g id="DIMIGOIN" class="cls-1"><path class="cls-2" d="M54.78.43C65,.43,70.32,5.11,70.32,17.05v1.83c0,11.94-5.33,16.63-15.54,16.63H46.64c-3.16,0-4.19-1-4.19-4.1V4.52c0-3.11,1-4.09,4.19-4.09ZM48.71,30.18h5.23c7.2,0,10-2.91,10-11.79v-.84c0-8.88-2.82-11.79-10-11.79H48.71Z"/><path class="cls-2" d="M83.29,2.85V33.09c0,1.87-1.48,2.71-3.16,2.71S77,35,77,33.09V2.85C77,1,78.46.13,80.13.13S83.29,1,83.29,2.85Z"/><path class="cls-2" d="M96.51.33c2.91,0,3.95.59,5.73,5L109,22.23l6.46-16.82c1.63-4.29,2.86-5.08,5.77-5.08h1c3.15,0,4.19,1,4.19,4.09V33.24c0,1.77-1.38,2.56-3,2.56s-3-.79-3-2.56V5.85a34.37,34.37,0,0,1-1.63,5.33l-6.51,16c-.84,2.07-1.68,2.61-3.35,2.61-2,0-2.87-.59-3.7-2.76L98.93,11.18A45.47,45.47,0,0,1,97.2,5.85V33.24c0,1.77-1.43,2.56-3,2.56s-2.91-.79-2.91-2.56V4.42c0-3.1,1-4.09,4.2-4.09Z"/><path class="cls-2" d="M140.77,2.85V33.09c0,1.87-1.49,2.71-3.16,2.71s-3.16-.84-3.16-2.71V2.85c0-1.88,1.48-2.72,3.16-2.72S140.77,1,140.77,2.85Z"/><path class="cls-2" d="M173.47,2.55a2.76,2.76,0,0,1,.64,4.05,2.6,2.6,0,0,1-3.65.88,13.1,13.1,0,0,0-7.2-1.87c-6.61,0-9.47,2.76-9.47,11.84v1c0,9.08,2.71,11.85,9.77,11.85a14.64,14.64,0,0,0,5.92-1V21.05H164c-1.53,0-2.22-1.23-2.22-2.66s.69-2.62,2.22-2.62h7.6c3.16,0,4.19,1,4.19,4.1v9.77c0,2.51-.74,3.75-2.86,4.63a25.88,25.88,0,0,1-9.52,1.78c-10.31,0-15.94-4.59-15.94-17.07V17c0-12.49,5.63-17.07,15.84-17.07C167.9-.11,171.15,1,173.47,2.55Z"/><path class="cls-2" d="M211.46,17v2c0,12-5.53,17.07-15.1,17.07S181.26,31,181.26,19V17c0-12,5.53-17.07,15.1-17.07S211.46,5,211.46,17Zm-23.83.49v1c0,8.94,3,11.8,8.73,11.8s8.73-2.86,8.73-11.8v-1c0-8.93-3-11.79-8.73-11.79S187.63,8.52,187.63,17.45Z"/><path class="cls-2" d="M224.43,2.85V33.09c0,1.87-1.48,2.71-3.16,2.71s-3.15-.84-3.15-2.71V2.85c0-1.88,1.47-2.72,3.15-2.72S224.43,1,224.43,2.85Z"/><path class="cls-2" d="M260,2.7V31.51c0,3.11-1,4.1-4.19,4.1-2.42,0-3.36-.5-5.87-5L240.61,14a23.52,23.52,0,0,1-2.37-5.68v25c0,1.77-1.43,2.56-2.91,2.56s-2.91-.79-2.91-2.56V4.42c0-3.1,1-4.09,4.19-4.09,2.42,0,3.36.54,5.88,5L251.81,22a23.28,23.28,0,0,1,2.37,5.67V2.7c0-1.78,1.43-2.57,2.91-2.57S260,.92,260,2.7Z"/></g><path class="cls-2" d="M32.25,20.89A14.43,14.43,0,1,1,29.5,9.24L27,14a9.75,9.75,0,1,0-.26,8.77h0l5-9.34,2.13-3.93A18.31,18.31,0,0,0,31.31,5.9a18,18,0,1,0,4.46,15.41ZM18.1,23.66a5.59,5.59,0,1,1,5.59-5.59A5.59,5.59,0,0,1,18.1,23.66Z"/></svg>