<svg xmlns="http://www.w3.org/2000/svg" xmlns:xlink="http://www.w3.org/1999/xlink" id="Layer_1" x="0" y="0" enable-background="new 0 0 127.5 32.3" version="1.1" viewBox="0 0 127.5 32.3" xml:space="preserve"><style type="text/css">.st0{fill:#e83c3d}.st1{fill:#fff}</style><g><path d="M10.9,21.1H7.8c-4.3,0-7.8-3.5-7.8-7.9c0-2.1,0.8-4.1,2.3-5.5c0.9-0.9,2.5-0.9,3.4,0s0.9,2.5,0,3.4c-1.2,1.1-1.2,3-0.1,4.2 c0.6,0.6,1.4,0.9,2.2,0.9h0.8V2.3C8.7,1,9.8,0,11.2,0c1.2,0.1,2.2,1,2.3,2.3v16.3C13.4,20,12.3,21.1,10.9,21.1L10.9,21.1z M21.4,18.7v-7.2c0.1-1.3-0.9-2.5-2.3-2.6s-2.5,0.9-2.6,2.3c0,0.1,0,0.2,0,0.3v7.2c-0.1,1.3,0.9,2.5,2.3,2.6 c1.3,0.1,2.5-0.9,2.6-2.3C21.4,18.9,21.4,18.8,21.4,18.7z M19.5,7.8c0.2,0,0.3-0.1,0.5-0.1c0.1-0.1,0.3-0.1,0.4-0.2 s0.3-0.2,0.4-0.3S21,7,21.1,6.8c0.1-0.1,0.2-0.3,0.2-0.4c0.1-0.1,0.1-0.3,0.1-0.4c0-0.2,0-0.3,0-0.5c0-0.6-0.3-1.3-0.7-1.7 c-0.1-0.1-0.2-0.2-0.4-0.3c-0.1-0.1-0.3-0.2-0.4-0.2c-0.1-0.1-0.3-0.1-0.5-0.1c-0.3-0.1-0.6-0.1-0.9,0c-0.2,0-0.3,0.1-0.5,0.1 c-0.1,0.1-0.3,0.1-0.4,0.2c-0.1,0.1-0.3,0.2-0.4,0.3C17.1,3.9,17,4,16.9,4.2c-0.2,0.3-0.3,0.6-0.4,0.9c0,0.2-0.1,0.3,0,0.5 c0,0.2,0,0.3,0,0.5s0.1,0.3,0.1,0.4c0.1,0.1,0.1,0.3,0.2,0.4C16.9,7,17,7.2,17.1,7.3C17.9,7.7,18.7,7.9,19.5,7.8z M48.9,7.6 c-3-3-7.9-3.1-11-0.1c-3.1-3-8.1-2.9-11.1,0.2c-1.4,1.5-2.2,3.4-2.2,5.4V19c-0.1,1.3,0.9,2.5,2.3,2.6c1.3,0.1,2.5-0.9,2.6-2.3 c0-0.1,0-0.2,0-0.3v-5.9c0-1.7,1.3-3,3-3s3,1.3,3,3V19c-0.1,1.3,0.9,2.5,2.3,2.6c1.3,0.1,2.5-0.9,2.6-2.3c0-0.1,0-0.2,0-0.3v-5.9 c0-1.7,1.3-3,3-3s3,1.3,3,3V19c0,1.3,1.1,2.4,2.4,2.4s2.4-1.1,2.4-2.4v-5.9C51.3,11,50.4,9,48.9,7.6L48.9,7.6z M59.4,18.7v-7.2 c0.1-1.3-0.9-2.5-2.3-2.6c-1.3-0.1-2.5,0.9-2.6,2.3c0,0.1,0,0.2,0,0.3v7.2c-0.1,1.3,0.9,2.5,2.3,2.6c1.3,0.1,2.5-0.9,2.6-2.3 C59.4,18.9,59.4,18.8,59.4,18.7z M57.4,7.8c0.2,0,0.3-0.1,0.4-0.1c0.1-0.1,0.3-0.1,0.4-0.2s0.3-0.2,0.4-0.3 c0.1-0.1,0.2-0.2,0.3-0.4c0.1-0.1,0.2-0.3,0.2-0.4c0.1-0.1,0.1-0.3,0.1-0.4c0.1-0.3,0.1-0.6,0-0.9c0-0.2-0.1-0.3-0.1-0.5 C59,4.5,59,4.3,58.9,4.2s-0.2-0.3-0.3-0.4c-0.1-0.1-0.2-0.2-0.4-0.3c-0.1-0.1-0.3-0.2-0.4-0.2c-0.1-0.1-0.3-0.1-0.4-0.1 c-0.3-0.1-0.6-0.1-0.9,0c-0.2,0-0.3,0.1-0.4,0.1c-0.1,0.1-0.3,0.1-0.4,0.2s-0.3,0.2-0.4,0.3C55.2,3.9,55.1,4,55,4.2 c-0.1,0.1-0.2,0.3-0.2,0.4c-0.1,0.1-0.1,0.3-0.1,0.5c-0.1,0.8,0.1,1.6,0.7,2.2c0.1,0.1,0.2,0.2,0.4,0.3c0.1,0.1,0.3,0.2,0.4,0.2 c0.1,0.1,0.3,0.1,0.4,0.1C56.9,7.8,57.2,7.8,57.4,7.8z M77.3,13.9v10.9c0.1,4-3,7.4-7,7.5s-7.4-3-7.5-7c0-0.2,0-0.4,0-0.5 c-0.1-1.3,0.9-2.5,2.3-2.6c1.3-0.1,2.5,0.9,2.6,2.3c0,0.1,0,0.2,0,0.3c-0.1,1.3,0.9,2.5,2.3,2.6c1.3,0.1,2.5-0.9,2.6-2.3 c0-0.1,0-0.2,0-0.3v-4.1c-3.8,1.3-7.9-0.6-9.2-4.4s0.6-7.9,4.4-9.2c3.8-1.3,7.9,0.6,9.2,4.4C77.2,12.2,77.3,13,77.3,13.9z M72.4,13.9c0-1.3-1.1-2.4-2.4-2.4s-2.4,1.1-2.4,2.4s1.1,2.4,2.4,2.4l0,0C71.4,16.3,72.4,15.2,72.4,13.9L72.4,13.9z M94.8,13.9 c0-4-3.2-7.3-7.3-7.3c-4.1,0-7.3,3.2-7.3,7.3c0,4,3.2,7.3,7.3,7.3C91.6,21.2,94.8,18,94.8,13.9C94.9,13.9,94.9,13.9,94.8,13.9 L94.8,13.9z M90,13.9c0,1.3-1.1,2.4-2.4,2.4s-2.4-1.1-2.4-2.4s1.1-2.4,2.4-2.4l0,0C88.9,11.4,90,12.5,90,13.9L90,13.9L90,13.9z"/><path fill="#e83c3d" d="M124.8,18.4v-5.9c0.2-4.3-3.2-8-7.6-8.1c-4.3-0.2-8,3.2-8.1,7.6c0,0.2,0,0.4,0,0.6v5.9 c-0.1,1.3,0.9,2.5,2.3,2.6c1.3,0.1,2.5-0.9,2.6-2.3c0-0.1,0-0.2,0-0.3v-5.9c0-1.7,1.3-3,3-3c0.8,0,1.6,0.3,2.1,0.9 c0.6,0.6,0.9,1.3,0.9,2.1v5.9c-0.1,1.3,0.9,2.5,2.3,2.6c1.3,0.1,2.5-0.9,2.6-2.3C124.8,18.6,124.8,18.5,124.8,18.4L124.8,18.4z" class="st0"/><path fill="#e83c3d" d="M127.5,26.9c0-1.3-1.1-2.4-2.4-2.4l0,0h-24.5c-1.3,0.1-2.3,1.2-2.3,2.6c0.1,1.2,1,2.2,2.3,2.3h24.5 C126.4,29.3,127.5,28.2,127.5,26.9L127.5,26.9L127.5,26.9z" class="st0"/><path fill="#e83c3d" d="M103.4,1.2l1,2c0,0,0,0.1,0.1,0.1l2.2,0.3c0.1,0,0.1,0.1,0.1,0.2l-1.6,1.5v0.1l0.4,2.2c0,0.1-0.1,0.2-0.2,0.1 l-1.9-1h-0.1l-1.9,1c-0.1,0-0.2,0-0.2-0.1l0.4-2.2V5.3l-1.6-1.5c-0.1-0.1,0-0.2,0.1-0.2l2.2-0.3c0,0,0.1,0,0.1-0.1L103.4,1.2 C103.3,1.1,103.4,1.1,103.4,1.2z" class="st0"/><g id="Layer_2" fill="#fff"><polygon fill="#e83c3d" points="105.7 11.4 100.9 13.2 100.9 14.8 105.7 13" class="st0"/><path fill="#e83c3d" d="M103.5,8.7c-1.3-0.1-2.5,0.9-2.6,2.3v0.6l4.5-1.7C105,9.2,104.3,8.8,103.5,8.7z" class="st0"/><path fill="#e83c3d" d="M103.3,20.7L103.3,20.7c1.4,0,2.4-1.1,2.4-2.4v-0.4l-4.5,1.6C101.7,20.2,102.4,20.7,103.3,20.7z" class="st0"/><polygon fill="#e83c3d" points="100.9 16.4 100.9 18.1 105.7 16.3 105.7 14.6" class="st0"/><path d="M105.7,11c0-0.4-0.2-0.8-0.4-1.1l-4.5,1.7v1.6l4.8-1.8L105.7,11L105.7,11L105.7,11z" class="st1"/><polygon points="105.7 13 100.9 14.8 100.9 16.4 105.7 14.6" class="st1"/><path d="M100.9,18.3c0,0.5,0.1,0.9,0.4,1.3l4.5-1.6v-1.6l-4.9,1.7V18.3z" class="st1"/></g></g></svg>